<svg width="31" height="31" viewBox="0 0 31 31" fill="none" xmlns="http://www.w3.org/2000/svg">
<g id="&#240;&#159;&#166;&#134; icon &#34;message search&#34;">
<g id="Group">
<path id="Vector" d="M29.9538 28.393L28.8741 27.3134C29.4285 26.4671 29.7641 25.4458 29.7641 24.3515C29.7641 21.3751 27.3421 18.9531 24.3657 18.9531C21.3893 18.9531 18.9673 21.3751 18.9673 24.3515C18.9673 27.3279 21.3893 29.7499 24.3657 29.7499C25.46 29.7499 26.4813 29.4144 27.3275 28.8599L28.4072 29.9396C28.626 30.1585 28.9033 30.2606 29.1805 30.2606C29.4577 30.2606 29.7349 30.1585 29.9538 29.9396C30.3769 29.5165 30.3769 28.8161 29.9538 28.393Z" fill="#292D32" fill-opacity="0.5"/>
<path id="Vector_2" opacity="0.4" d="M0 15.991V7.26596C0 3.25363 3.26822 0 7.29514 0H21.8854C25.9123 0 29.1805 3.25363 29.1805 7.28055V17.4646C29.1805 21.4769 25.9123 24.7306 21.8854 24.7306H19.6969C19.2446 24.7306 18.8069 24.9494 18.5296 25.3142L16.3411 28.2176C15.3781 29.5016 13.8024 29.5016 12.8394 28.2176L10.6509 25.3142C10.4029 24.9932 9.89221 24.7306 9.48368 24.7306H7.29514C3.26822 24.7306 0 21.4769 0 17.4646V15.991Z" fill="#292D32" fill-opacity="0.5"/>
<path id="Vector_3" d="M14.5908 14.576C13.7738 14.576 13.1172 13.9195 13.1172 13.117C13.1172 12.3145 13.7737 11.658 14.5762 11.658C15.3787 11.658 16.0352 12.3145 16.0352 13.117C16.0352 13.9195 15.4079 14.576 14.5908 14.576Z" fill="#292D32" fill-opacity="0.5"/>
<path id="Vector_4" d="M20.4267 14.576C19.6097 14.576 18.9531 13.9195 18.9531 13.117C18.9531 12.3145 19.6097 11.658 20.4122 11.658C21.2146 11.658 21.8712 12.3145 21.8712 13.117C21.8712 13.9195 21.2438 14.576 20.4267 14.576Z" fill="#292D32" fill-opacity="0.5"/>
<path id="Vector_5" d="M8.75439 14.576C7.93734 14.576 7.28076 13.9195 7.28076 13.117C7.28076 12.3145 7.93732 11.658 8.73979 11.658C9.54225 11.658 10.1988 12.3145 10.1988 13.117C10.1988 13.9195 9.57145 14.576 8.75439 14.576Z" fill="#292D32" fill-opacity="0.5"/>
</g>
</g>
</svg>
