<svg width="30" height="30" viewBox="0 0 30 30" fill="none" xmlns="http://www.w3.org/2000/svg">
<g id="&#240;&#159;&#166;&#134; icon &#34;lock 1&#34;">
<g id="Group">
<path id="Vector" d="M25.125 10.1669V13.1025C24.465 13.0186 23.715 12.9767 22.875 12.9627V10.1669C22.875 5.76346 21.54 2.82783 15 2.82783C8.46 2.82783 7.125 5.76346 7.125 10.1669V12.9627C6.285 12.9767 5.535 13.0186 4.875 13.1025V10.1669C4.875 6.11293 5.925 0.730957 15 0.730957C24.075 0.730957 25.125 6.11293 25.125 10.1669Z" fill="#8B8B8C" fill-opacity="0.5"/>
<path id="Vector_2" d="M25.125 13.1027C24.465 13.0188 23.715 12.9769 22.875 12.9629H7.125C6.285 12.9769 5.535 13.0188 4.875 13.1027C1.05 13.536 0 15.2834 0 19.9525V22.7483C0 28.34 1.5 29.7379 7.5 29.7379H22.5C28.5 29.7379 30 28.34 30 22.7483V19.9525C30 15.2834 28.95 13.536 25.125 13.1027ZM10.065 22.3429C9.78 22.5945 9.39 22.7483 9 22.7483C8.805 22.7483 8.61 22.7064 8.43 22.6365C8.235 22.5666 8.085 22.4687 7.935 22.3429C7.665 22.0773 7.5 21.7138 7.5 21.3504C7.5 21.1687 7.545 20.9869 7.62 20.8192C7.695 20.6514 7.8 20.4977 7.935 20.3579C8.085 20.2321 8.235 20.1342 8.43 20.0643C8.985 19.8406 9.645 19.9665 10.065 20.3579C10.2 20.4977 10.305 20.6514 10.38 20.8192C10.455 20.9869 10.5 21.1687 10.5 21.3504C10.5 21.7138 10.335 22.0773 10.065 22.3429ZM16.38 21.8816C16.305 22.0493 16.2 22.2031 16.065 22.3429C15.78 22.5945 15.39 22.7483 15 22.7483C14.595 22.7483 14.22 22.5945 13.935 22.3429C13.8 22.2031 13.695 22.0493 13.62 21.8816C13.545 21.7138 13.5 21.5321 13.5 21.3504C13.5 20.973 13.665 20.6235 13.935 20.3579C14.49 19.8406 15.495 19.8406 16.065 20.3579C16.335 20.6235 16.5 20.973 16.5 21.3504C16.5 21.5321 16.455 21.7138 16.38 21.8816ZM22.065 22.3429C21.78 22.5945 21.39 22.7483 21 22.7483C20.61 22.7483 20.22 22.5945 19.935 22.3429C19.665 22.0773 19.5 21.7278 19.5 21.3504C19.5 20.973 19.665 20.6235 19.935 20.3579C20.505 19.8406 21.51 19.8406 22.065 20.3579C22.125 20.4278 22.185 20.4977 22.245 20.5815C22.305 20.6514 22.35 20.7353 22.38 20.8192C22.425 20.9031 22.455 20.9869 22.47 21.0708C22.485 21.1687 22.5 21.2665 22.5 21.3504C22.5 21.7138 22.335 22.0773 22.065 22.3429Z" fill="#8B8B8C" fill-opacity="0.5"/>
</g>
</g>
</svg>
